<svg xmlns="http://www.w3.org/2000/svg"  viewBox="0 0 100 100" width="100px" height="100px" baseProfile="basic"><path fill="#00ab9b" d="M84.529,41.868c-1.272-2.963-4.698-4.328-7.661-3.064c-4.157,1.781-8.151,3.675-11.997,5.627 l-11.13-24.566C52.403,16.909,49.44,15,46.193,15c-3.434,0-6.463,2.069-7.716,5.269L15.264,79.696 c-0.467,1.198-0.315,2.547,0.412,3.609C16.4,84.366,17.602,85,18.889,85h5.833h0.004c1.559,0,3.115-0.622,4.262-1.851 c4.464-4.783,14.945-13.257,29.019-21.63l9.858,21.229C68.499,84.121,69.876,85,71.389,85h5.833c1.322,0,2.551-0.669,3.267-1.781 s0.821-2.508,0.272-3.714L69.689,55.071c3.772-1.925,7.692-3.796,11.772-5.542C84.428,48.258,85.797,44.828,84.529,41.868z M36.552,61.632l9.858-25.087l6.65,14.327C46.877,54.499,41.343,58.167,36.552,61.632z"/><path fill="#1f212b" d="M77.222,86h-5.833c-1.897,0-3.637-1.112-4.432-2.833l-9.39-20.22 c-13.175,7.937-23.44,16.162-27.848,20.884C28.433,85.209,26.612,86,24.726,86h-5.837c-1.618,0-3.128-0.797-4.038-2.132 c-0.912-1.33-1.105-3.026-0.518-4.536l23.213-59.427C38.949,16.318,42.344,14,46.192,14c3.64,0,6.961,2.141,8.46,5.453 l10.699,23.615c3.815-1.916,7.464-3.616,11.123-5.184c3.464-1.481,7.49,0.133,8.974,3.589v0.001 c1.483,3.464-0.129,7.489-3.594,8.974c-3.518,1.506-7.078,3.172-10.859,5.082l10.677,23.562c0.689,1.517,0.563,3.262-0.342,4.668 C80.428,85.162,78.892,86,77.222,86z M58.007,60.519c0.1,0,0.198,0.015,0.295,0.045c0.271,0.083,0.493,0.277,0.612,0.534 l9.858,21.229C69.242,83.344,70.269,84,71.389,84h5.833c0.986,0,1.894-0.494,2.427-1.322c0.534-0.831,0.609-1.862,0.202-2.759 L68.778,55.484c-0.221-0.487-0.02-1.061,0.457-1.304c4.14-2.112,8.011-3.935,11.832-5.57c2.451-1.051,3.592-3.898,2.543-6.348 c-1.05-2.445-3.898-3.584-6.35-2.539c-3.915,1.677-7.82,3.509-11.937,5.599c-0.245,0.124-0.527,0.143-0.784,0.052 c-0.258-0.091-0.467-0.282-0.58-0.53L52.83,20.278C51.654,17.679,49.049,16,46.192,16c-3.02,0-5.683,1.819-6.783,4.634 L16.196,80.06c-0.348,0.892-0.233,1.894,0.306,2.68C17.04,83.529,17.932,84,18.889,84h5.833c1.358,0,2.612-0.545,3.535-1.534 c4.272-4.576,14.493-13.033,29.238-21.807C57.651,60.566,57.829,60.519,58.007,60.519z M36.552,62.632 c-0.217,0-0.433-0.07-0.612-0.21c-0.352-0.271-0.48-0.742-0.318-1.156l9.858-25.087c0.146-0.372,0.501-0.621,0.9-0.634 c0.443-0.022,0.77,0.217,0.938,0.579l6.65,14.326c0.217,0.467,0.043,1.022-0.401,1.283c-5.701,3.345-11.229,6.948-16.429,10.709 C36.963,62.568,36.757,62.632,36.552,62.632z M46.486,39.085l-7.775,19.787c4.192-2.926,8.571-5.742,13.061-8.402L46.486,39.085z"/><path fill="#1f212b" d="M77.047,81.5c-0.19,0-0.372-0.109-0.455-0.294l-1.297-2.862c-0.114-0.251-0.003-0.548,0.249-0.661	c0.249-0.113,0.548-0.003,0.661,0.249l1.297,2.862c0.114,0.251,0.003,0.548-0.249,0.661C77.187,81.485,77.116,81.5,77.047,81.5z M73.988,74.75c-0.19,0-0.372-0.109-0.455-0.294l-3.059-6.75c-0.114-0.251-0.003-0.548,0.249-0.661	c0.249-0.113,0.548-0.003,0.661,0.249l3.059,6.75c0.114,0.251,0.003,0.548-0.249,0.661C74.128,74.735,74.058,74.75,73.988,74.75z M23.542,70c-0.061,0-0.122-0.011-0.182-0.034c-0.258-0.101-0.385-0.391-0.284-0.647l3.32-8.5c0.101-0.257,0.39-0.386,0.647-0.284	c0.258,0.101,0.385,0.391,0.284,0.647l-3.32,8.5C23.931,69.879,23.742,70,23.542,70z M28.376,57.625	c-0.061,0-0.122-0.011-0.182-0.034c-0.258-0.101-0.385-0.391-0.284-0.647l13.827-35.4c0.724-1.849,2.473-3.043,4.455-3.043	c1.876,0,3.588,1.103,4.359,2.809l2.485,5.485c0.114,0.251,0.003,0.548-0.249,0.661c-0.25,0.112-0.548,0.003-0.661-0.249	l-2.485-5.485c-0.611-1.349-1.965-2.221-3.449-2.221c-1.568,0-2.951,0.944-3.523,2.407L28.842,57.307	C28.765,57.504,28.576,57.625,28.376,57.625z"/></svg>